<?xml version="1.0" standalone="no"?>
<!DOCTYPE svg PUBLIC "-//W3C//DTD SVG 20010904//EN"
 "http://www.w3.org/TR/2001/REC-SVG-20010904/DTD/svg10.dtd">
<svg version="1.0" xmlns="http://www.w3.org/2000/svg"
 width="128.000000pt" height="128.000000pt" viewBox="0 0 128.000000 128.000000"
 preserveAspectRatio="xMidYMid meet">
<metadata>
Created by potrace 1.11, written by Peter Selinger 2001-2013
</metadata>
<g transform="translate(0.000000,128.000000) scale(0.100000,-0.100000)"
fill="#000000" stroke="none">
<path d="M220 640 l0 -640 425 0 425 0 0 640 0 640 -425 0 -425 0 0 -640z
m470 390 c0 -40 4 -52 18 -56 83 -26 127 -76 138 -157 l7 -47 -41 0 c-38 0
-40 2 -47 37 -10 53 -63 103 -109 103 -73 0 -116 -42 -116 -114 0 -56 44 -97
145 -136 97 -37 149 -81 164 -138 13 -46 13 -58 1 -104 -17 -59 -54 -96 -116
-114 l-54 -15 0 -45 c0 -44 0 -44 -35 -44 -35 0 -35 0 -35 45 0 43 -1 44 -40
55 -71 19 -121 75 -135 153 l-7 38 43 -3 c40 -3 44 -5 50 -37 9 -44 46 -80 91
-88 93 -15 158 28 158 104 0 61 -41 102 -132 132 -126 42 -178 101 -178 201 0
87 52 155 133 174 25 6 27 10 27 56 l0 50 35 0 35 0 0 -50z"/>
</g>
</svg>
